<svg xmlns="http://www.w3.org/2000/svg" viewBox="0 0 500 500" fill="none">
  <rect width="500" height="500" fill="#000000" />
  <g stroke="#0FC2C0" stroke-width="1" stroke-opacity="0.3">
    <!-- Horizontal Lines -->
    <line x1="50" y1="50" x2="450" y2="50" />
    <line x1="50" y1="150" x2="450" y2="150" />
    <line x1="50" y1="250" x2="450" y2="250" />
    <line x1="50" y1="350" x2="450" y2="350" />
    <line x1="50" y1="450" x2="450" y2="450" />
    
    <!-- Vertical Lines -->
    <line x1="50" y1="50" x2="50" y2="450" />
    <line x1="150" y1="50" x2="150" y2="450" />
    <line x1="250" y1="50" x2="250" y2="450" />
    <line x1="350" y1="50" x2="350" y2="450" />
    <line x1="450" y1="50" x2="450" y2="450" />

    <!-- Circuits (Small Circles) -->
    <circle cx="100" cy="100" r="8" fill="#0FC2C0" />
    <circle cx="200" cy="200" r="8" fill="#0FC2C0" />
    <circle cx="300" cy="300" r="8" fill="#0FC2C0" />
    <circle cx="400" cy="400" r="8" fill="#0FC2C0" />
    <circle cx="400" cy="100" r="8" fill="#0FC2C0" />
    <circle cx="100" cy="400" r="8" fill="#0FC2C0" />
  </g>
</svg>
